<mxfile host="app.diagrams.net" modified="2024-03-01T14:38:13.131Z" agent="Mozilla/5.0 (Windows NT 10.0; Win64; x64) AppleWebKit/537.36 (KHTML, like Gecko) Chrome/122.0.0.0 Safari/537.36" etag="Uq4SWJQCuJbfFVFD9P3o" version="24.0.0" type="device">
  <diagram id="C5RBs43oDa-KdzZeNtuy" name="Page-1">
    <mxGraphModel dx="1290" dy="557" grid="1" gridSize="10" guides="1" tooltips="1" connect="1" arrows="1" fold="1" page="1" pageScale="1" pageWidth="827" pageHeight="1169" math="0" shadow="0">
      <root>
        <mxCell id="WIyWlLk6GJQsqaUBKTNV-0" />
        <mxCell id="WIyWlLk6GJQsqaUBKTNV-1" parent="WIyWlLk6GJQsqaUBKTNV-0" />
        <mxCell id="JXEiuDoPyjnu_Ammmx3x-3" style="edgeStyle=orthogonalEdgeStyle;rounded=0;orthogonalLoop=1;jettySize=auto;html=1;entryX=0.5;entryY=0;entryDx=0;entryDy=0;" edge="1" parent="WIyWlLk6GJQsqaUBKTNV-1" source="JXEiuDoPyjnu_Ammmx3x-0" target="JXEiuDoPyjnu_Ammmx3x-1">
          <mxGeometry relative="1" as="geometry" />
        </mxCell>
        <mxCell id="JXEiuDoPyjnu_Ammmx3x-4" style="edgeStyle=orthogonalEdgeStyle;rounded=0;orthogonalLoop=1;jettySize=auto;html=1;entryX=0.5;entryY=0;entryDx=0;entryDy=0;" edge="1" parent="WIyWlLk6GJQsqaUBKTNV-1" source="JXEiuDoPyjnu_Ammmx3x-0" target="JXEiuDoPyjnu_Ammmx3x-2">
          <mxGeometry relative="1" as="geometry">
            <mxPoint x="250" y="180" as="targetPoint" />
          </mxGeometry>
        </mxCell>
        <mxCell id="JXEiuDoPyjnu_Ammmx3x-0" value="Abstract Factory" style="whiteSpace=wrap;html=1;aspect=fixed;" vertex="1" parent="WIyWlLk6GJQsqaUBKTNV-1">
          <mxGeometry x="130" y="70" width="80" height="80" as="geometry" />
        </mxCell>
        <mxCell id="JXEiuDoPyjnu_Ammmx3x-21" style="edgeStyle=orthogonalEdgeStyle;rounded=0;orthogonalLoop=1;jettySize=auto;html=1;entryX=0;entryY=0.5;entryDx=0;entryDy=0;strokeColor=#336600;" edge="1" parent="WIyWlLk6GJQsqaUBKTNV-1" source="JXEiuDoPyjnu_Ammmx3x-1" target="JXEiuDoPyjnu_Ammmx3x-6">
          <mxGeometry relative="1" as="geometry">
            <Array as="points">
              <mxPoint x="90" y="320" />
            </Array>
          </mxGeometry>
        </mxCell>
        <mxCell id="JXEiuDoPyjnu_Ammmx3x-22" style="edgeStyle=orthogonalEdgeStyle;rounded=0;orthogonalLoop=1;jettySize=auto;html=1;exitX=0.25;exitY=1;exitDx=0;exitDy=0;entryX=0;entryY=0.5;entryDx=0;entryDy=0;strokeColor=#336600;" edge="1" parent="WIyWlLk6GJQsqaUBKTNV-1" source="JXEiuDoPyjnu_Ammmx3x-1" target="JXEiuDoPyjnu_Ammmx3x-9">
          <mxGeometry relative="1" as="geometry" />
        </mxCell>
        <mxCell id="JXEiuDoPyjnu_Ammmx3x-1" value="Concreate Factory 1" style="whiteSpace=wrap;html=1;aspect=fixed;" vertex="1" parent="WIyWlLk6GJQsqaUBKTNV-1">
          <mxGeometry x="60" y="190" width="60" height="60" as="geometry" />
        </mxCell>
        <mxCell id="JXEiuDoPyjnu_Ammmx3x-23" style="edgeStyle=orthogonalEdgeStyle;rounded=0;orthogonalLoop=1;jettySize=auto;html=1;entryX=0.5;entryY=1;entryDx=0;entryDy=0;strokeColor=#FF3333;" edge="1" parent="WIyWlLk6GJQsqaUBKTNV-1" source="JXEiuDoPyjnu_Ammmx3x-2" target="JXEiuDoPyjnu_Ammmx3x-7">
          <mxGeometry relative="1" as="geometry">
            <Array as="points">
              <mxPoint x="250" y="370" />
              <mxPoint x="580" y="370" />
            </Array>
          </mxGeometry>
        </mxCell>
        <mxCell id="JXEiuDoPyjnu_Ammmx3x-24" style="edgeStyle=orthogonalEdgeStyle;rounded=0;orthogonalLoop=1;jettySize=auto;html=1;exitX=0.25;exitY=1;exitDx=0;exitDy=0;entryX=0.5;entryY=1;entryDx=0;entryDy=0;strokeColor=#FF0000;" edge="1" parent="WIyWlLk6GJQsqaUBKTNV-1" source="JXEiuDoPyjnu_Ammmx3x-2" target="JXEiuDoPyjnu_Ammmx3x-10">
          <mxGeometry relative="1" as="geometry" />
        </mxCell>
        <mxCell id="JXEiuDoPyjnu_Ammmx3x-2" value="Concreate Factory 2" style="whiteSpace=wrap;html=1;aspect=fixed;" vertex="1" parent="WIyWlLk6GJQsqaUBKTNV-1">
          <mxGeometry x="220" y="190" width="60" height="60" as="geometry" />
        </mxCell>
        <mxCell id="JXEiuDoPyjnu_Ammmx3x-11" style="edgeStyle=orthogonalEdgeStyle;rounded=0;orthogonalLoop=1;jettySize=auto;html=1;exitX=0;exitY=0.5;exitDx=0;exitDy=0;entryX=0.5;entryY=0;entryDx=0;entryDy=0;" edge="1" parent="WIyWlLk6GJQsqaUBKTNV-1" source="JXEiuDoPyjnu_Ammmx3x-5" target="JXEiuDoPyjnu_Ammmx3x-6">
          <mxGeometry relative="1" as="geometry" />
        </mxCell>
        <mxCell id="JXEiuDoPyjnu_Ammmx3x-12" style="edgeStyle=orthogonalEdgeStyle;rounded=0;orthogonalLoop=1;jettySize=auto;html=1;exitX=1;exitY=0.5;exitDx=0;exitDy=0;entryX=0.5;entryY=0;entryDx=0;entryDy=0;" edge="1" parent="WIyWlLk6GJQsqaUBKTNV-1" source="JXEiuDoPyjnu_Ammmx3x-5" target="JXEiuDoPyjnu_Ammmx3x-7">
          <mxGeometry relative="1" as="geometry" />
        </mxCell>
        <mxCell id="JXEiuDoPyjnu_Ammmx3x-5" value="Abstract Product 1" style="whiteSpace=wrap;html=1;aspect=fixed;" vertex="1" parent="WIyWlLk6GJQsqaUBKTNV-1">
          <mxGeometry x="460" y="170" width="80" height="80" as="geometry" />
        </mxCell>
        <mxCell id="JXEiuDoPyjnu_Ammmx3x-6" value="Product A1" style="whiteSpace=wrap;html=1;aspect=fixed;" vertex="1" parent="WIyWlLk6GJQsqaUBKTNV-1">
          <mxGeometry x="384" y="290" width="60" height="60" as="geometry" />
        </mxCell>
        <mxCell id="JXEiuDoPyjnu_Ammmx3x-7" value="Product B1" style="whiteSpace=wrap;html=1;aspect=fixed;" vertex="1" parent="WIyWlLk6GJQsqaUBKTNV-1">
          <mxGeometry x="550" y="290" width="60" height="60" as="geometry" />
        </mxCell>
        <mxCell id="JXEiuDoPyjnu_Ammmx3x-13" style="edgeStyle=orthogonalEdgeStyle;rounded=0;orthogonalLoop=1;jettySize=auto;html=1;entryX=0.5;entryY=0;entryDx=0;entryDy=0;" edge="1" parent="WIyWlLk6GJQsqaUBKTNV-1" source="JXEiuDoPyjnu_Ammmx3x-8" target="JXEiuDoPyjnu_Ammmx3x-9">
          <mxGeometry relative="1" as="geometry" />
        </mxCell>
        <mxCell id="JXEiuDoPyjnu_Ammmx3x-14" style="edgeStyle=orthogonalEdgeStyle;rounded=0;orthogonalLoop=1;jettySize=auto;html=1;entryX=0.5;entryY=0;entryDx=0;entryDy=0;" edge="1" parent="WIyWlLk6GJQsqaUBKTNV-1" source="JXEiuDoPyjnu_Ammmx3x-8" target="JXEiuDoPyjnu_Ammmx3x-10">
          <mxGeometry relative="1" as="geometry" />
        </mxCell>
        <mxCell id="JXEiuDoPyjnu_Ammmx3x-8" value="Abstract Product 2" style="whiteSpace=wrap;html=1;aspect=fixed;" vertex="1" parent="WIyWlLk6GJQsqaUBKTNV-1">
          <mxGeometry x="460" y="390" width="80" height="80" as="geometry" />
        </mxCell>
        <mxCell id="JXEiuDoPyjnu_Ammmx3x-9" value="Product A2" style="whiteSpace=wrap;html=1;aspect=fixed;" vertex="1" parent="WIyWlLk6GJQsqaUBKTNV-1">
          <mxGeometry x="384" y="500" width="60" height="60" as="geometry" />
        </mxCell>
        <mxCell id="JXEiuDoPyjnu_Ammmx3x-10" value="Product A2" style="whiteSpace=wrap;html=1;aspect=fixed;" vertex="1" parent="WIyWlLk6GJQsqaUBKTNV-1">
          <mxGeometry x="570" y="500" width="60" height="60" as="geometry" />
        </mxCell>
        <mxCell id="JXEiuDoPyjnu_Ammmx3x-18" style="edgeStyle=orthogonalEdgeStyle;rounded=0;orthogonalLoop=1;jettySize=auto;html=1;entryX=0.5;entryY=0;entryDx=0;entryDy=0;strokeColor=#3333FF;" edge="1" parent="WIyWlLk6GJQsqaUBKTNV-1" source="JXEiuDoPyjnu_Ammmx3x-15" target="JXEiuDoPyjnu_Ammmx3x-0">
          <mxGeometry relative="1" as="geometry" />
        </mxCell>
        <mxCell id="JXEiuDoPyjnu_Ammmx3x-19" style="edgeStyle=orthogonalEdgeStyle;rounded=0;orthogonalLoop=1;jettySize=auto;html=1;entryX=0.5;entryY=0;entryDx=0;entryDy=0;strokeColor=#3333FF;" edge="1" parent="WIyWlLk6GJQsqaUBKTNV-1" source="JXEiuDoPyjnu_Ammmx3x-15" target="JXEiuDoPyjnu_Ammmx3x-5">
          <mxGeometry relative="1" as="geometry" />
        </mxCell>
        <mxCell id="JXEiuDoPyjnu_Ammmx3x-20" style="edgeStyle=orthogonalEdgeStyle;rounded=0;orthogonalLoop=1;jettySize=auto;html=1;exitX=1;exitY=0.5;exitDx=0;exitDy=0;entryX=1;entryY=0.25;entryDx=0;entryDy=0;strokeColor=#0000CC;" edge="1" parent="WIyWlLk6GJQsqaUBKTNV-1" source="JXEiuDoPyjnu_Ammmx3x-15" target="JXEiuDoPyjnu_Ammmx3x-8">
          <mxGeometry relative="1" as="geometry">
            <Array as="points">
              <mxPoint x="700" y="50" />
              <mxPoint x="700" y="410" />
            </Array>
          </mxGeometry>
        </mxCell>
        <mxCell id="JXEiuDoPyjnu_Ammmx3x-15" value="Client" style="whiteSpace=wrap;html=1;aspect=fixed;" vertex="1" parent="WIyWlLk6GJQsqaUBKTNV-1">
          <mxGeometry x="460" y="10" width="80" height="80" as="geometry" />
        </mxCell>
      </root>
    </mxGraphModel>
  </diagram>
</mxfile>
